<svg xmlns="http://www.w3.org/2000/svg"
    width="24"
    height="24"
    viewBox="0 -960 960 960">

    <circle fill="#43A047" cx="50%" cy="-50%" r="50%" />

    <!--
        Make this match the Android icon exactly. Android adaptive icons take the inner (centered)
        2/3rds of the foreground's viewbox and crop out the rest [1].

        ic_foreground is at 1/2 scale and then cropped to 2/3rds of the original viewbox, so it
        takes up (1/2) / (2/3) = 3/4 of the cropped viewbox. In this SVG version, we don't crop.
        Instead, the full size icon is scaled down to 3/4 to match.

        [1] https://cs.android.com/android/platform/superproject/+/android-13.0.0_r31:frameworks/base/graphics/java/android/graphics/drawable/AdaptiveIconDrawable.java;l=106
    -->

    <g transform-origin="480 -480" transform="scale(0.75 0.75)">
        <path
            fill="#ffffff"
            d="M400-40q-33 0-56.5-23.5T320-120v-120q-33 0-56.5-23.5T240-320v-520q0-33 23.5-56.5T320-920h320q33 0 56.5 23.5T720-840v520q0 33-23.5 56.5T640-240v120q0 33-23.5 56.5T560-40H400Zm80-420q50 0 85-35t35-85q0-50-35-85t-85-35q-50 0-85 35t-35 85q0 50 35 85t85 35Zm-80 340h160v-120H400v120Zm-80-200h320v-520H320v520Zm160-220q-17 0-28.5-11.5T440-580q0-17 11.5-28.5T480-620q17 0 28.5 11.5T520-580q0 17-11.5 28.5T480-540ZM320-320h320-320Z" />
    </g>
</svg>
