<svg xmlns="http://www.w3.org/2000/svg"
    width="24"
    height="24"
    viewBox="0 -960 960 960">

    <circle fill="#43A047" cx="50%" cy="-50%" r="50%" />

    <!--
        Make this match the Android icon exactly. Android adaptive icons take the inner (centered)
        2/3rds of the foreground's viewbox and crop out the rest [1].

        ic_foreground is at 1/2 scale and then cropped to 2/3rds of the original viewbox, so it
        takes up (1/2) / (2/3) = 3/4 of the cropped viewbox. In this SVG version, we don't crop.
        Instead, the full size icon is scaled down to 3/4 to match.

        [1] https://cs.android.com/android/platform/superproject/+/android-13.0.0_r31:frameworks/base/graphics/java/android/graphics/drawable/AdaptiveIconDrawable.java;l=106
    -->

    <g transform-origin="50% -50%" transform="scale(0.75 0.75)">
        <path
            fill="#ffffff"
            d="M408.46-60q-30.31 0-51.31-21-20.99-21-20.99-51.31v-118.84h-3.85q-30.31 0-51.31-21-21-21-21-51.31v-504.23Q260-858 281-879q21-21 51.31-21h295.38Q658-900 679-879q21 21 21 51.31v504.23q0 30.31-21 51.31-21 21-51.31 21h-3.85v118.84q0 30.31-20.99 51.31-21 21-51.31 21H408.46ZM480-469.62q44.23 0 75.19-30.77 30.96-30.76 30.96-74.99 0-44.23-30.96-75.39-30.96-31.15-75.19-31.15t-75.19 31.15q-30.96 31.16-30.96 75.39 0 44.23 30.96 74.99 30.96 30.77 75.19 30.77ZM405.39-120H555q3.85 0 6.54-2.69 2.69-2.7 2.69-6.54v-121.92H396.15v121.92q0 3.84 2.7 6.54 2.69 2.69 6.54 2.69Zm-76.16-191.15h301.54q3.84 0 6.54-2.7 2.69-2.69 2.69-6.53v-510.39q0-3.84-2.69-6.54-2.7-2.69-6.54-2.69H329.23q-3.84 0-6.54 2.69-2.69 2.7-2.69 6.54v510.39q0 3.84 2.69 6.53 2.7 2.7 6.54 2.7ZM480-529.61q-19.31 0-32.54-13.24-13.23-13.23-13.23-32.53 0-19.31 13.23-32.93 13.23-13.61 32.54-13.61t32.92 13.61q13.62 13.62 13.62 32.93 0 19.3-13.62 32.53-13.61 13.24-32.92 13.24ZM329.23-311.15H320 640 329.23Z" />
    </g>
</svg>
